<?xml version="1.0" standalone="no"?><!DOCTYPE svg PUBLIC "-//W3C//DTD SVG 1.1//EN" "http://www.w3.org/Graphics/SVG/1.1/DTD/svg11.dtd"><svg t="1533620068477" class="icon" style="" viewBox="0 0 1024 1024" version="1.1" xmlns="http://www.w3.org/2000/svg" p-id="1016" xmlns:xlink="http://www.w3.org/1999/xlink" width="200" height="200"><defs><style type="text/css"></style></defs><path d="M542.08 558.08c-21.12 0-39.04-17.28-39.04-39.04 0-21.12 17.28-39.04 39.04-39.04 21.12 0 39.04 17.28 39.04 39.04 0 21.76-17.28 39.04-39.04 39.04z m0-50.56c-6.4 0-12.16 5.12-12.16 12.16 0 6.4 5.12 12.16 12.16 12.16 6.4 0 12.16-5.12 12.16-12.16 0-7.04-5.12-12.16-12.16-12.16z" fill="#ffffff" p-id="1017"></path><path d="M542.08 611.84c-126.72 0-174.72-85.12-176.64-88.96-1.28-1.92-1.28-4.48 0-7.04 1.92-3.84 43.52-88.96 176.64-88.96s174.72 85.76 176.64 89.6c1.28 1.92 0.64 4.48 0 7.04-1.92 3.2-49.92 88.32-176.64 88.32zM381.44 519.04c10.24 15.36 56.32 77.44 161.28 77.44 103.68 0 151.04-62.08 161.28-77.44-8.96-16-51.2-77.44-161.28-77.44-110.08 0.64-152.32 62.08-161.28 77.44z" fill="#ffffff" p-id="1018"></path><path d="M542.08 590.72c-39.04 0-71.04-32-71.04-71.04s32-71.04 71.04-71.04 71.04 32 71.04 71.04c0.64 39.04-31.36 71.04-71.04 71.04z m0-127.36c-30.72 0-56.32 24.96-56.32 56.32 0 30.72 24.96 56.32 56.32 56.32 30.72 0 56.32-24.96 56.32-56.32s-24.96-56.32-56.32-56.32zM542.08 231.04c-4.48 0-7.68-3.2-7.68-7.68v-1.28c0-4.48 3.2-7.68 7.68-7.68s7.68 3.2 7.68 7.68v1.92c0 3.84-3.2 7.04-7.68 7.04zM542.08 295.04c-4.48 0-7.68-3.2-7.68-7.68v-3.2c0-4.48 3.2-7.68 7.68-7.68s7.68 3.2 7.68 7.68v3.2c0 3.84-3.2 7.68-7.68 7.68z m0-21.12c-4.48 0-7.68-3.2-7.68-7.68v-3.2c0-4.48 3.2-7.68 7.68-7.68s7.68 3.2 7.68 7.68v3.2c0 3.84-3.2 7.68-7.68 7.68z m0-21.76c-4.48 0-7.68-3.2-7.68-7.68v-3.2c0-4.48 3.2-7.68 7.68-7.68s7.68 3.2 7.68 7.68v3.2c0 4.48-3.2 7.68-7.68 7.68zM542.08 314.88c-4.48 0-7.68-3.2-7.68-7.68v-1.28c0-4.48 3.2-7.68 7.68-7.68s7.68 3.2 7.68 7.68v1.28c0 3.84-3.2 7.68-7.68 7.68zM542.08 740.48c-4.48 0-7.68-3.2-7.68-7.68v-1.28c0-4.48 3.2-7.68 7.68-7.68s7.68 3.2 7.68 7.68v1.28c0 4.48-3.2 7.68-7.68 7.68zM542.08 804.48c-4.48 0-7.68-3.2-7.68-7.68v-3.2c0-4.48 3.2-7.68 7.68-7.68s7.68 3.2 7.68 7.68v3.2c0 3.84-3.2 7.68-7.68 7.68z m0-21.12c-4.48 0-7.68-3.2-7.68-7.68v-3.2c0-4.48 3.2-7.68 7.68-7.68s7.68 3.2 7.68 7.68v3.2c0 3.84-3.2 7.68-7.68 7.68z m0-21.76c-4.48 0-7.68-3.2-7.68-7.68v-3.2c0-4.48 3.2-7.68 7.68-7.68s7.68 3.2 7.68 7.68v3.2c0 4.48-3.2 7.68-7.68 7.68zM542.08 824.32c-4.48 0-7.68-3.2-7.68-7.68v-1.28c0-4.48 3.2-7.68 7.68-7.68s7.68 3.2 7.68 7.68v1.28c0 3.84-3.2 7.68-7.68 7.68zM330.24 526.72h-1.28c-4.48 0-7.68-3.2-7.68-7.68s3.2-7.68 7.68-7.68h1.28c4.48 0 7.68 3.2 7.68 7.68s-3.84 7.68-7.68 7.68zM310.4 526.72H307.2c-4.48 0-7.68-3.2-7.68-7.68S303.36 512 307.2 512h3.2c4.48 0 7.68 3.2 7.68 7.68s-3.84 7.04-7.68 7.04z m-21.12 0h-3.2c-4.48 0-7.68-3.2-7.68-7.68s3.2-7.68 7.68-7.68h3.2c4.48 0 7.68 3.2 7.68 7.68s-3.84 7.68-7.68 7.68z m-21.12 0h-3.2c-4.48 0-7.68-3.2-7.68-7.68s3.2-7.68 7.68-7.68h3.2c4.48 0 7.68 3.2 7.68 7.68s-3.84 7.68-7.68 7.68zM247.04 526.72h-1.28c-4.48 0-7.68-3.2-7.68-7.68s3.2-7.68 7.68-7.68h1.28c4.48 0 7.68 3.2 7.68 7.68s-3.84 7.68-7.68 7.68zM755.84 527.36h-1.28c-4.48 0-7.68-3.2-7.68-7.68s3.2-7.68 7.68-7.68h1.28c4.48 0 7.68 3.2 7.68 7.68s-3.2 7.68-7.68 7.68zM819.84 527.36h-3.2c-4.48 0-7.68-3.2-7.68-7.68s3.2-7.68 7.68-7.68h3.2c4.48 0 7.68 3.2 7.68 7.68s-3.84 7.68-7.68 7.68z m-21.12 0h-3.2c-4.48 0-7.68-3.2-7.68-7.68s3.2-7.68 7.68-7.68h3.2c4.48 0 7.68 3.2 7.68 7.68s-3.84 7.68-7.68 7.68z m-21.12 0h-3.2c-4.48 0-7.68-3.2-7.68-7.68s3.2-7.68 7.68-7.68h3.2c4.48 0 7.68 3.2 7.68 7.68s-3.84 7.68-7.68 7.68zM839.68 527.36h-1.28c-4.48 0-7.68-3.2-7.68-7.68s3.2-7.68 7.68-7.68h1.28c4.48 0 7.68 3.2 7.68 7.68s-3.84 7.68-7.68 7.68zM751.36 318.08c-1.92 0-3.84-0.64-5.12-1.92-3.2-3.2-3.2-7.68 0-10.88l1.28-1.28c3.2-3.2 7.68-3.2 10.88 0s3.2 7.68 0 10.88l-1.28 1.28c-1.92 1.28-3.84 1.92-5.76 1.92zM711.04 358.4c-1.92 0-3.84-0.64-5.12-1.92-3.2-3.2-3.2-7.68 0-10.88l1.92-1.92c3.2-3.2 7.68-3.2 10.88 0s3.2 7.68 0 10.88l-1.92 1.92c-1.92 1.28-3.84 1.92-5.76 1.92z m13.44-13.44c-1.92 0-3.84-0.64-5.12-1.92-3.2-3.2-3.2-7.68 0-10.88l1.92-1.92c3.2-3.2 7.68-3.2 10.88 0s3.2 7.68 0 10.88l-1.92 1.92c-1.92 1.28-3.84 1.92-5.76 1.92z m13.44-13.44c-1.92 0-3.84-0.64-5.12-1.92-3.2-3.2-3.2-7.68 0-10.88l1.92-1.92c3.2-3.2 7.68-3.2 10.88 0s3.2 7.68 0 10.88l-1.92 1.92c-1.92 1.28-3.84 1.92-5.76 1.92zM698.24 370.56c-1.92 0-3.84-0.64-5.12-1.92-3.2-3.2-3.2-7.68 0-10.88l1.28-1.28c3.2-3.2 7.68-3.2 10.88 0s3.2 7.68 0 10.88l-1.28 1.28c-1.92 1.28-3.84 1.92-5.76 1.92zM392.32 376.96c-1.92 0-3.84-0.64-5.12-1.92l-1.28-1.28c-3.2-3.2-3.2-7.68 0-10.88s7.68-3.2 10.88 0l1.28 1.28c3.2 3.2 3.2 7.68 0 10.88-1.92 1.28-3.84 1.92-5.76 1.92zM378.24 362.88c-1.92 0-3.84-0.64-5.12-1.92l-2.56-2.56c-3.2-3.2-3.2-7.68 0-10.88s7.68-3.2 10.88 0l1.92 1.92c3.2 3.2 3.2 7.68 0 10.88-1.28 1.92-3.2 2.56-5.12 2.56z m-14.72-14.72c-1.92 0-3.84-0.64-5.12-1.92l-1.92-1.92c-3.2-3.2-3.2-7.68 0-10.88s7.68-3.2 10.88 0l1.92 1.92c3.2 3.2 3.2 7.68 0 10.88-1.92 0.64-3.84 1.92-5.76 1.92zM348.16 332.8c-1.92 0-3.84-0.64-5.12-1.92l-1.92-1.92c-3.2-3.2-3.2-7.68 0-10.88s7.68-3.2 10.88 0l1.92 1.92c3.2 3.2 3.2 7.68 0 10.88-1.92 1.28-3.84 1.92-5.76 1.92zM333.44 318.08c-1.92 0-3.84-0.64-5.12-1.92l-1.28-1.28c-3.2-3.2-3.2-7.68 0-10.88s7.68-3.2 10.88 0l1.28 1.28c3.2 3.2 3.2 7.68 0 10.88-1.92 1.28-3.84 1.92-5.76 1.92zM332.16 737.28c-1.92 0-3.84-0.64-5.12-1.92-3.2-3.2-3.2-7.68 0-10.88l1.28-1.28c3.2-3.2 7.68-3.2 10.88 0s3.2 7.68 0 10.88l-1.28 1.28c-1.92 0.64-3.84 1.92-5.76 1.92zM346.24 723.2c-1.92 0-3.84-0.64-5.12-1.92-3.2-3.2-3.2-7.68 0-10.88l1.92-1.92c3.2-3.2 7.68-3.2 10.88 0s3.2 7.68 0 10.88l-1.92 1.92c-1.92 1.28-3.84 1.92-5.76 1.92z m14.72-15.36c-1.92 0-3.84-0.64-5.12-1.92-3.2-3.2-3.2-7.68 0-10.88l1.92-1.92c3.2-3.2 7.68-3.2 10.88 0s3.2 7.68 0 10.88l-1.92 1.92c-1.92 1.28-3.84 1.92-5.76 1.92z m15.36-14.72c-1.92 0-3.84-0.64-5.12-1.92-3.2-3.2-3.2-7.68 0-10.88l1.92-1.92c3.2-3.2 7.68-3.2 10.88 0s3.2 7.68 0 10.88l-1.92 1.92c-1.92 1.28-3.84 1.92-5.76 1.92zM391.04 677.76c-1.92 0-3.84-0.64-5.12-1.92-3.2-3.2-3.2-7.68 0-10.88l1.28-1.28c3.2-3.2 7.68-3.2 10.88 0s3.2 7.68 0 10.88l-1.28 1.28c-1.92 1.28-3.84 1.92-5.76 1.92zM752.64 737.28c-1.92 0-3.84-0.64-5.12-1.92l-1.28-1.28c-3.2-3.2-3.2-7.68 0-10.88s7.68-3.2 10.88 0l1.28 1.28c3.2 3.2 3.2 7.68 0 10.88-1.92 0.64-3.84 1.92-5.76 1.92zM738.56 723.2c-1.92 0-3.84-0.64-5.12-1.92l-1.92-1.92c-3.2-3.2-3.2-7.68 0-10.88s7.68-3.2 10.88 0l1.92 1.92c3.2 3.2 3.2 7.68 0 10.88-1.92 1.28-3.84 1.92-5.76 1.92z m-15.36-15.36c-1.92 0-3.84-0.64-5.12-1.92l-1.92-1.92c-3.2-3.2-3.2-7.68 0-10.88s7.68-3.2 10.88 0l1.92 1.92c3.2 3.2 3.2 7.68 0 10.88-1.28 1.28-3.2 1.92-5.76 1.92z m-14.72-14.72c-1.92 0-3.84-0.64-5.12-1.92l-1.92-1.92c-3.2-3.2-3.2-7.68 0-10.88s7.68-3.2 10.88 0l1.92 1.92c3.2 3.2 3.2 7.68 0 10.88-1.92 1.28-3.84 1.92-5.76 1.92zM693.76 677.76c-1.92 0-3.84-0.64-5.12-1.92l-1.28-1.28c-3.2-3.2-3.2-7.68 0-10.88s7.68-3.2 10.88 0l1.28 1.28c3.2 3.2 3.2 7.68 0 10.88-1.92 1.28-3.84 1.92-5.76 1.92z" fill="#ffffff" p-id="1019"></path><path d="M468.48 452.48c-1.92 0-3.84-0.64-5.12-1.92l-33.28-33.28c-3.2-3.2-3.2-7.68 0-10.88s7.68-3.2 10.88 0l33.28 33.28c3.2 3.2 3.2 7.68 0 10.88-1.92 1.28-3.84 1.92-5.76 1.92zM648.96 632.96c-1.92 0-3.84-0.64-5.12-1.92l-32.64-32.64c-3.2-3.2-3.2-7.68 0-10.88s7.68-3.2 10.88 0l32.64 32.64c3.2 3.2 3.2 7.68 0 10.88-1.92 1.28-3.84 1.92-5.76 1.92zM616.32 453.12c-1.92 0-3.84-0.64-5.12-1.92-3.2-3.2-3.2-7.68 0-10.88l33.28-33.28c3.2-3.2 7.68-3.2 10.88 0s3.2 7.68 0 10.88l-33.28 33.28c-1.92 0.64-3.84 1.92-5.76 1.92zM435.84 632.96c-1.92 0-3.84-0.64-5.12-1.92-3.2-3.2-3.2-7.68 0-10.88l32.64-32.64c3.2-3.2 7.68-3.2 10.88 0s3.2 7.68 0 10.88L441.6 631.04c-1.92 1.28-3.84 1.92-5.76 1.92zM542.08 654.08c-4.48 0-7.68-3.2-7.68-7.68v-42.24c0-4.48 3.2-7.68 7.68-7.68s7.68 3.2 7.68 7.68v42.24c0 4.48-3.2 7.68-7.68 7.68zM542.08 442.24c-4.48 0-7.68-3.2-7.68-7.68v-42.24c0-4.48 3.2-7.68 7.68-7.68s7.68 3.2 7.68 7.68v42.24c0 3.84-3.2 7.68-7.68 7.68zM542.08 199.68c-39.04 0-71.04-32-71.04-71.04S503.04 57.6 542.08 57.6s71.04 32 71.04 71.04c0.64 39.04-31.36 71.04-71.04 71.04z m0-127.36c-30.72 0-56.32 24.96-56.32 56.32 0 30.72 24.96 56.32 56.32 56.32 30.72 0 56.32-24.96 56.32-56.32 0-30.72-24.96-56.32-56.32-56.32z" fill="#ffffff" p-id="1020"></path><path d="M542.08 167.68c-21.76 0-39.68-17.92-39.68-39.68 0-21.76 17.92-39.68 39.68-39.68 21.76 0 39.68 17.92 39.68 39.68 0 22.4-17.92 39.68-39.68 39.68z m0-63.36c-13.44 0-24.32 10.88-24.32 24.32 0 13.44 10.88 24.32 24.32 24.32 13.44 0 24.32-10.88 24.32-24.32 0-13.44-10.88-24.32-24.32-24.32zM542.08 981.12c-39.04 0-71.04-32-71.04-71.04s32-71.04 71.04-71.04 71.04 32 71.04 71.04c0.64 39.04-31.36 71.04-71.04 71.04z m0-127.36c-30.72 0-56.32 24.96-56.32 56.32 0 30.72 24.96 56.32 56.32 56.32 30.72 0 56.32-24.96 56.32-56.32 0-30.72-24.96-56.32-56.32-56.32z" fill="#ffffff" p-id="1021"></path><path d="M542.08 949.76c-21.76 0-39.68-17.92-39.68-39.68 0-21.76 17.92-39.68 39.68-39.68 21.76 0 39.68 17.92 39.68 39.68 0 21.76-17.92 39.68-39.68 39.68z m0-64c-13.44 0-24.32 10.88-24.32 24.32 0 13.44 10.88 24.32 24.32 24.32 13.44 0 24.32-10.88 24.32-24.32 0-13.44-10.88-24.32-24.32-24.32zM933.12 590.72c-39.04 0-71.04-32-71.04-71.04s32-71.04 71.04-71.04 71.04 32 71.04 71.04-32 71.04-71.04 71.04z m0-127.36c-30.72 0-56.32 24.96-56.32 56.32 0 30.72 24.96 56.32 56.32 56.32 30.72 0 56.32-24.96 56.32-56.32s-25.6-56.32-56.32-56.32z" fill="#ffffff" p-id="1022"></path><path d="M933.12 558.72c-21.76 0-39.68-17.92-39.68-39.68 0-21.76 17.92-39.68 39.68-39.68 21.76 0 39.68 17.92 39.68 39.68 0 22.4-17.92 39.68-39.68 39.68z m0-63.36c-13.44 0-24.32 10.88-24.32 24.32 0 13.44 10.88 24.32 24.32 24.32 13.44 0 24.32-10.88 24.32-24.32 0-13.44-10.88-24.32-24.32-24.32zM151.68 590.72c-39.04 0-71.04-32-71.04-71.04s32-71.04 71.04-71.04 71.04 32 71.04 71.04-32 71.04-71.04 71.04z m0-127.36c-30.72 0-56.32 24.96-56.32 56.32 0 30.72 24.96 56.32 56.32 56.32s56.32-24.96 56.32-56.32-25.6-56.32-56.32-56.32z" fill="#ffffff" p-id="1023"></path><path d="M151.68 558.72c-21.76 0-39.68-17.92-39.68-39.68 0-21.76 17.92-39.68 39.68-39.68 21.76 0 39.68 17.92 39.68 39.68-0.64 21.76-17.92 39.68-39.68 39.68z m0-63.36c-13.44 0-24.32 10.88-24.32 24.32 0 13.44 10.88 24.32 24.32 24.32 13.44 0 24.32-10.88 24.32-24.32 0-13.44-10.88-24.32-24.32-24.32zM269.44 317.44c-19.2 0-37.12-7.68-50.56-21.12-13.44-13.44-21.12-31.36-21.12-50.56s7.68-37.12 21.12-50.56c13.44-13.44 31.36-21.12 50.56-21.12s37.12 7.68 50.56 21.12c13.44 13.44 21.12 31.36 21.12 50.56s-7.68 37.12-21.12 50.56c-13.44 14.08-31.36 21.12-50.56 21.12z m0-127.36c-14.08 0-28.8 5.76-39.68 16.64-10.88 10.88-16.64 24.96-16.64 39.68 0 14.72 5.76 28.8 16.64 39.68 21.76 21.76 57.6 21.76 79.36 0 10.88-10.88 16.64-24.96 16.64-39.68 0-14.72-5.76-28.8-16.64-39.68-10.88-10.88-24.96-16.64-39.68-16.64z" fill="#ffffff" p-id="1024"></path><path d="M269.44 286.08c-10.24 0-20.48-3.84-28.16-11.52-15.36-15.36-15.36-40.32 0-55.68 15.36-15.36 40.32-15.36 55.68 0 15.36 15.36 15.36 40.32 0 55.68-7.04 7.68-17.28 11.52-27.52 11.52z m0-64c-6.4 0-12.16 2.56-17.28 7.04-9.6 9.6-9.6 24.96 0 34.56 9.6 9.6 24.96 9.6 34.56 0 9.6-9.6 9.6-24.96 0-34.56-5.12-4.48-10.88-7.04-17.28-7.04zM815.36 863.36c-19.2 0-37.12-7.68-50.56-21.12-13.44-13.44-21.12-31.36-21.12-50.56s7.68-37.12 21.12-50.56c13.44-13.44 31.36-21.12 50.56-21.12s37.12 7.68 50.56 21.12c13.44 13.44 21.12 31.36 21.12 50.56s-7.68 37.12-21.12 50.56c-13.44 14.08-31.36 21.12-50.56 21.12z m0-127.36c-14.08 0-28.8 5.76-39.68 16.64-21.76 21.76-21.76 57.6 0 79.36 21.76 21.76 57.6 21.76 79.36 0 21.76-21.76 21.76-57.6 0-79.36-10.88-10.88-25.6-16.64-39.68-16.64z" fill="#ffffff" p-id="1025"></path><path d="M815.36 831.36c-10.24 0-20.48-3.84-28.16-11.52-15.36-15.36-15.36-40.32 0-55.68 7.68-7.68 17.28-11.52 28.16-11.52 10.24 0 20.48 3.84 28.16 11.52 15.36 15.36 15.36 40.32 0 55.68-7.68 7.68-17.92 11.52-28.16 11.52z m0-63.36c-6.4 0-12.8 2.56-17.28 7.04-9.6 9.6-9.6 24.96 0 34.56 4.48 4.48 10.88 7.04 17.28 7.04 6.4 0 12.8-2.56 17.28-7.04 9.6-9.6 9.6-24.96 0-34.56-5.12-4.48-10.88-7.04-17.28-7.04zM815.36 317.44c-19.2 0-37.12-7.68-50.56-21.12-27.52-27.52-27.52-72.96 0-100.48 13.44-13.44 31.36-21.12 50.56-21.12s37.12 7.68 50.56 21.12c27.52 27.52 27.52 72.96 0 100.48-13.44 14.08-31.36 21.12-50.56 21.12z m0-127.36c-14.08 0-28.8 5.76-39.68 16.64-21.76 21.76-21.76 57.6 0 79.36 10.88 10.88 24.96 16.64 39.68 16.64 14.72 0 28.8-5.76 39.68-16.64 21.76-21.76 21.76-57.6 0-79.36-10.88-10.88-25.6-16.64-39.68-16.64z" fill="#ffffff" p-id="1026"></path><path d="M815.36 286.08c-10.24 0-20.48-3.84-28.16-11.52-15.36-15.36-15.36-40.32 0-55.68 15.36-15.36 40.32-15.36 55.68 0 15.36 15.36 15.36 40.32 0 55.68-7.68 7.68-17.28 11.52-27.52 11.52z m0-64c-6.4 0-12.16 2.56-17.28 7.04-9.6 9.6-9.6 24.96 0 34.56 9.6 9.6 24.96 9.6 34.56 0 9.6-9.6 9.6-24.96 0-34.56-5.12-4.48-10.88-7.04-17.28-7.04zM269.44 863.36c-18.56 0-36.48-7.04-50.56-21.12-13.44-13.44-21.12-31.36-21.12-50.56s7.68-37.12 21.12-50.56c27.52-27.52 72.96-27.52 100.48 0 13.44 13.44 21.12 31.36 21.12 50.56s-7.68 37.12-21.12 50.56c-13.44 14.08-31.36 21.12-49.92 21.12z m0-127.36c-14.08 0-28.8 5.76-39.68 16.64-21.76 21.76-21.76 57.6 0 79.36 21.76 21.76 57.6 21.76 79.36 0 10.88-10.88 16.64-24.96 16.64-39.68 0-14.72-5.76-28.8-16.64-39.68-10.88-10.88-24.96-16.64-39.68-16.64z" fill="#ffffff" p-id="1027"></path><path d="M269.44 831.36c-10.24 0-20.48-3.84-28.16-11.52-15.36-15.36-15.36-40.32 0-55.68 15.36-15.36 40.32-15.36 55.68 0 15.36 15.36 15.36 40.32 0 55.68-7.04 7.68-17.28 11.52-27.52 11.52z m0-63.36c-6.4 0-12.16 2.56-17.28 7.04-9.6 9.6-9.6 24.96 0 34.56 9.6 9.6 24.96 9.6 34.56 0 9.6-9.6 9.6-24.96 0-34.56-5.12-4.48-10.88-7.04-17.28-7.04z" fill="#ffffff" p-id="1028"></path><path d="M542.08 128.64m-10.88 0a10.88 10.88 0 1 0 21.76 0 10.88 10.88 0 1 0-21.76 0Z" fill="#ffffff" p-id="1029"></path><path d="M542.08 899.2c-5.76 0-10.88 5.12-10.88 10.88 0 5.76 5.12 10.88 10.88 10.88s10.88-5.12 10.88-10.88c0-5.76-4.48-10.88-10.88-10.88z" fill="#ffffff" p-id="1030"></path><path d="M933.12 519.68m-10.88 0a10.88 10.88 0 1 0 21.76 0 10.88 10.88 0 1 0-21.76 0Z" fill="#ffffff" p-id="1031"></path><path d="M151.68 508.8c-5.76 0-10.88 5.12-10.88 10.88 0 5.76 5.12 10.88 10.88 10.88 5.76 0 10.88-5.12 10.88-10.88 0-6.4-5.12-10.88-10.88-10.88zM261.76 238.72c-4.48 4.48-4.48 10.88 0 15.36 1.92 1.92 4.48 3.2 7.68 3.2s5.76-1.28 7.68-3.2c4.48-4.48 4.48-10.88 0-15.36-3.84-3.84-10.88-3.84-15.36 0zM807.68 784.64c-4.48 3.84-4.48 10.88 0 15.36 1.92 1.92 5.12 3.2 7.68 3.2s5.76-1.28 7.68-3.2c3.84-3.84 3.84-10.88 0-15.36-4.48-4.48-10.88-4.48-15.36 0zM807.68 238.72c-1.92 1.92-3.2 4.48-3.2 7.68 0 2.56 1.28 5.76 3.2 7.68 1.92 1.92 5.12 3.2 7.68 3.2s5.76-1.28 7.68-3.2c1.92-1.92 3.2-4.48 3.2-7.68 0-2.56-1.28-5.76-3.2-7.68-4.48-3.84-10.88-3.84-15.36 0zM261.76 784.64c-4.48 3.84-4.48 10.88 0 15.36 1.92 1.92 4.48 3.2 7.68 3.2s5.76-1.28 7.68-3.2c4.48-3.84 4.48-10.88 0-15.36-3.84-3.84-10.88-3.84-15.36 0z" fill="#ffffff" p-id="1032"></path></svg>