<?xml version="1.0" standalone="no"?><!DOCTYPE svg PUBLIC "-//W3C//DTD SVG 1.1//EN" "http://www.w3.org/Graphics/SVG/1.1/DTD/svg11.dtd"><svg t="1533621079767" class="icon" style="" viewBox="0 0 1024 1024" version="1.1" xmlns="http://www.w3.org/2000/svg" p-id="2124" xmlns:xlink="http://www.w3.org/1999/xlink" width="200" height="200"><defs><style type="text/css"></style></defs><path d="M896 477.866667c-34.133333-29.866667-93.866667-93.866667-17.066667-145.066667 76.8-55.466667 110.933333-119.466667 34.133333-213.333333 0 0-85.333333-132.266667-401.066667-21.333333C174.933333 221.866667 64 379.733333 46.933333 558.933333c-17.066667 174.933333 38.4 349.866667 268.8 401.066667 230.4 51.2 524.8-64 601.6-243.2S930.133333 507.733333 896 477.866667zM878.933333 699.733333c-55.466667 128-251.733333 230.4-448 230.4 0 0 0 0 0 0-38.4 0-72.533333-4.266667-102.4-12.8-174.933333-38.4-256-157.866667-238.933333-354.133333 12.8-119.466667 68.266667-290.133333 443.733333-422.4 81.066667-29.866667 149.333333-42.666667 209.066667-42.666667 106.666667 0 140.8 46.933333 140.8 46.933333l0 0 0 0c25.6 34.133333 38.4 59.733333 34.133333 81.066667-4.266667 25.6-21.333333 46.933333-59.733333 72.533333-42.666667 29.866667-55.466667 64-55.466667 89.6-4.266667 59.733333 51.2 110.933333 68.266667 123.733333 4.266667 4.266667 8.533333 4.266667 8.533333 8.533333C904.533333 541.866667 934.4 563.2 878.933333 699.733333z" p-id="2125" fill="#ffffff"></path><path d="M686.933333 533.333333c-55.466667 0-102.4 46.933333-102.4 102.4s46.933333 102.4 102.4 102.4c55.466667 0 102.4-46.933333 102.4-102.4S746.666667 533.333333 686.933333 533.333333zM686.933333 699.733333c-34.133333 0-64-29.866667-64-64 0-34.133333 29.866667-64 64-64 34.133333 0 64 29.866667 64 64C750.933333 674.133333 721.066667 699.733333 686.933333 699.733333z" p-id="2126" fill="#ffffff"></path><path d="M439.466667 806.4m-64 0a1.5 1.5 0 1 0 128 0 1.5 1.5 0 1 0-128 0Z" p-id="2127" fill="#ffffff"></path><path d="M251.733333 640m-64 0a1.5 1.5 0 1 0 128 0 1.5 1.5 0 1 0-128 0Z" p-id="2128" fill="#ffffff"></path><path d="M311.466667 409.6m-64 0a1.5 1.5 0 1 0 128 0 1.5 1.5 0 1 0-128 0Z" p-id="2129" fill="#ffffff"></path><path d="M520.533333 285.866667m-64 0a1.5 1.5 0 1 0 128 0 1.5 1.5 0 1 0-128 0Z" p-id="2130" fill="#ffffff"></path><path d="M750.933333 221.866667m-64 0a1.5 1.5 0 1 0 128 0 1.5 1.5 0 1 0-128 0Z" p-id="2131" fill="#ffffff"></path></svg>