<?xml version="1.0" standalone="no"?><!DOCTYPE svg PUBLIC "-//W3C//DTD SVG 1.1//EN" "http://www.w3.org/Graphics/SVG/1.1/DTD/svg11.dtd"><svg t="1533621970651" class="icon" style="" viewBox="0 0 1024 1024" version="1.1" xmlns="http://www.w3.org/2000/svg" p-id="3337" xmlns:xlink="http://www.w3.org/1999/xlink" width="200" height="200"><defs><style type="text/css"></style></defs><path d="M720.3 862.9H309.8c-24.1 0-43.7-19.6-43.7-43.7V246c0-24.1 19.6-43.7 43.7-43.7h410.4c24.1 0 43.7 19.6 43.7 43.7v573.2c0 24.1-19.6 43.7-43.6 43.7zM309.8 224.2c-12 0-21.8 9.8-21.8 21.8v573.2c0 12 9.8 21.8 21.8 21.8h410.4c12 0 21.8-9.8 21.8-21.8V246c0-12-9.8-21.8-21.8-21.8H309.8z" fill="#ffffff" p-id="3338"></path><path d="M464.7 428.3h103.4v18.9H464.7zM464.7 381.8h103.4v18.9H464.7z" fill="#ffffff" p-id="3339"></path><path d="M483.622 386.054v103.4h-18.9v-103.4z" fill="#ffffff" p-id="3340"></path><path d="M464.7 476.6h103.4v18.9H464.7z" fill="#ffffff" p-id="3341"></path><path d="M462.337 590.29h-77.5v-14.2h77.5zM462.337 623.173h-77.5v-14.2h77.5zM462.337 556.15h-77.5v-14.2h77.5z" fill="#ffffff" p-id="3342"></path><path d="M448.173 619.634v-77.5h14.2v77.5zM373.889 678.012v56.3h-9.4v-56.3zM399.826 677.975v56.3h-9.4v-56.3zM349.553 678.048v56.3h-9.4v-56.3z" fill="#ffffff" p-id="3343"></path><path d="M399.778 687.489h-59.7v-9.4h59.7zM510.78 732.734v-56.3h9.4v56.3zM484.842 732.696v-56.3h9.4v56.3zM535.116 732.67v-56.3h9.4v56.3z" fill="#ffffff" p-id="3344"></path><path d="M484.8 723.3h59.7v9.4h-59.7zM688.545 708.453h-56.3v-9.4h56.3zM688.545 734.427h-56.3v-9.4h56.3zM688.545 684.18h-56.3v-9.4h56.3z" fill="#ffffff" p-id="3345"></path><path d="M679.152 734.405v-59.7h9.4v59.7zM601.695 621.985v-77.5h14.2v77.5zM568.803 621.993v-77.5h14.2v77.5zM635.865 621.954v-77.5h14.2v77.5z" fill="#ffffff" p-id="3346"></path><path d="M572.4 607.8h77.5V622h-77.5z" fill="#ffffff" p-id="3347"></path></svg>